<svg width="22" height="19" viewBox="0 0 22 19" fill="none" xmlns="http://www.w3.org/2000/svg">
<path fill-rule="evenodd" clip-rule="evenodd" d="M18.0554 0.416956C18.7228 0.693519 19.3292 1.09888 19.84 1.60987C20.351 2.12063 20.7563 2.72706 21.0329 3.39452C21.3095 4.06198 21.4518 4.77738 21.4518 5.49987C21.4518 6.22236 21.3095 6.93777 21.0329 7.60523C20.7563 8.27269 20.351 8.87912 19.84 9.38987L18.78 10.4499L11 18.2299L3.22 10.4499L2.16 9.38987C1.1283 8.35818 0.548706 6.95891 0.548706 5.49987C0.548706 4.04084 1.1283 2.64156 2.16 1.60987C3.19169 0.57818 4.59096 -0.00141834 6.05 -0.00141835C7.50903 -0.00141836 8.9083 0.57818 9.94 1.60987L11 2.66987L12.06 1.60987C12.5708 1.09888 13.1772 0.693519 13.8446 0.416956C14.5121 0.140394 15.2275 -0.00195312 15.95 -0.00195312C16.6725 -0.00195312 17.3879 0.140394 18.0554 0.416956Z" fill="#EF4565"/>
</svg>
